<?xml version="1.0" encoding="UTF-8"?>
<svg width="800" height="113.45" version="1.1" viewBox="0 0 800 113.45" xmlns="http://www.w3.org/2000/svg" xmlns:cc="http://creativecommons.org/ns#" xmlns:dc="http://purl.org/dc/elements/1.1/" xmlns:rdf="http://www.w3.org/1999/02/22-rdf-syntax-ns#">
 <metadata>
  <rdf:RDF>
   <cc:Work rdf:about="">
    <dc:format>image/svg+xml</dc:format>
    <dc:type rdf:resource="http://purl.org/dc/dcmitype/StillImage"/>
    <dc:title/>
   </cc:Work>
  </rdf:RDF>
 </metadata>
 <g transform="translate(-11.82 17.746)">
  <path d="m46.796 95.253-34.976-0.35265 0.54646-55.612 0.54646-55.612 34.944-0.29723 0.55644 41.624 0.55644 41.624h32.803v28.979zm-11.394-6.0153h0.90645l2.5408-4.111h-4.3537v4.111zm-6.0452-8.2221h1.0278v-2.0555h-2.0555v2.0555zm22.489-6.1666h0.90645l1.1826-1.9135 1.1826-1.9135-4.1781-2.5822v6.4092zm10.399-2.0555h1.0278v-2.0555h-2.0555v2.0555zm13.361 0h2.7407l-2.7407-2.7407-2.7407 2.7407zm-49.113-8.2221h1.8356l-0.03147-1.5416-0.03147-1.5416-3.8246-6.0475-2.3758 2.3758 2.5921 6.755zm-5.2374-12.333h0.90645v-4.111h-4.3537l2.5408 4.111zm0.22128-6.8517 1.3703-1.3704-2.7407-2.7407v5.4814zm1.0063-21.096 2.0926-1.2933-4.4007-4.4007-1.2678 1.2679-1.2678 1.2678 2.7512 4.4516zm152.4 69.5-16.863 0.85629-6.3574-3.5578v-9.7371l-2.4954-6.5028-8.81 0.05632-4.6249 1.2394-4.6249 1.2394-0.0315 5.4129-0.0315 5.4129-3.0203 4.6754-39.441 0.37822 9.482-42.053 4.906-25.319 5.5251 2.1202v-4.2083l-3.7576-1.3704 5.2136-26.722 0.61182 28.777 0.50769 4.9685 0.50771 4.9686 2.2268 0.74122 2.2268 0.74124 0.49476-5.253 1.3365-8.2221 1.3365-8.2221 4.1873-5.1388h-6.4254l0.39163-12.847 0.39162-12.847h51.388l4.6226 18.5-3.5948 3.9055v9.4554l4.7747-1.0278 5.1199 17.051 12.736 60.697-1.0475 0.97551zm-20.137-8.6638h1.0278v-2.0555h-2.0555v2.0555zm-36.497-17.289 0.6218-0.6218-2.5921-6.755h-3.6712l0.51387 2.5694 0.51388 2.5694 3.992 2.8597zm-2.4369-13.543h0.90645v-4.111h-4.3536l2.5408 4.111zm25.276-4.111h7.8224l-5.3842-25.694-0.0428-3.7185-0.0428-3.7185 4.111 2.5407v-4.3537h-6.1666l-0.19316-2.5694-0.19316-2.5694-5.5916 28.777-1.0707 5.6527-1.0707 5.6527zm-26.661-4.111h4.2178l-1.2165-3.1701-1.2165-3.1702-2.1877 0.72924-2.1877 0.72922-0.81365 2.4409-0.81363 2.4409zm-9.014-6.1666h1.0278v-2.0555h-2.0555v2.0555zm23.981-20.555h1.7129v-3.6712l-6.1666-2.3663v3.2968l1.3704 1.3703 1.3704 1.3704zm-7.5369-30.833h1.0278v-2.0555h-2.0555v2.0555zm115.79 106.89h-24.64l-6.1666-6.1666-6.1665-6.1666h-3.6502l-4.2557-7.9518v-18.474l21.583-2.5257 16.444-0.85337 0.63813 8.8605 0.63817 8.8605 11.057-1.2768 0.67111-5.8673 0.67112-5.8673-8.5365-7.953v2.0385l-42.138-17.599-0.61054-18.196 4.7216-3.3963-5.1388-2.0851v-14.323l9.2498 2.6018-5.5559-3.853 13.778-10.375 12.256 0.08427 4.514 6.1732 8.023-4.2938 29.208-2.8781 18.944 13.846-0.50083 9.0892-0.50086 9.0892-4.6154 1.5172-1.1511-4.4019-1.1511-4.4019-4.3878 2.7118v5.4101l-12.847 2.5694h-14.217l1.7089-5.1388 11.04-0.41587 1.3337-1.3337 1.3337-1.3337h-15.074v-4.111h-14.146l-1.2964 2.0977-1.2964 2.0977-26.846-2.7505 0.7234 3.6886 0.72339 3.6886 24.666-0.39918 12.333 6.005 43.166 18.138 0.58705 19.583 0.58703 19.583-21.071 16.655zm-17.129-10.278h1.0278v-2.0555h-2.0555v2.0555zm54.471-4.111h2.7407l-2.7407-2.7407-1.3704 1.3703-1.3703 1.3704zm-71.037-2.0555h5.2602v-1.576l-8.218-2.149-2.3022 3.7251zm17.593 0h2.7407l-2.7407-2.7407-2.7407 2.7407zm51.388-2.0555h2.7407l-2.7407-2.7407-1.3704 1.3703-1.3703 1.3704zm-0.12132-8.2221h1.9342l1.2558-2.032 1.2559-2.032-6.3801 2.4483v1.6157h1.9342zm-25.23-13.018 1.3704-1.3704-1.3704-1.3704-1.3703-1.3703v5.4814zm24.445-3.4259h0.90645v-4.111h-4.3537l1.2704 2.0555 1.2704 2.0555zm-6.2879-39.055h1.0278v-2.0555h-2.0555v2.0555zm-60.638-14.389h2.7407l-2.7407-2.7407-2.7407 2.7407zm19.527-0.40072 6.1666 0.076055-5.0606-2.0475-7.2726 1.8951 6.1666 0.076056zm11.305 0.40072h2.7407l-2.7407-2.7407-1.3704 1.3703-1.3703 1.3704zm20.434-4.111h2.1769v-4.111h-1.8129l-1.2704 2.0555-1.2704 2.0555zm65.734 100.26-10.114 0.23038v-84.043h-22.611v-26.722h82.417l-1.2239 25.694-21.583 1.2426-0.0315 31.239-0.0315 31.239-1.9123-3.0238-1.9122-3.0238-2.8649 2.8649 2.6001 3.1329 2.6 3.133h-4.6144v6.6699l6.1665-5.1178v8.7255l-3.0833-0.0629-2.8307-1.793-2.8307-1.793-0.2526-18.046-0.25257-18.046-5.1388-1.7118-0.19919 4.7962-0.19917 4.7962 0.38369 7.1943 0.3837 7.1943 0.50338 10.278-1.6277 7.3613-1.6277 7.3613-10.114 0.23038zm23.047-28.314h1.5244l-1.1894-7.7082-1.1895-7.7082-0.84677-0.96644-0.84681-0.96642 0.51186 8.6746 0.51184 8.6746zm-0.95779-19.185 1.3703-1.3704-1.3703-1.3704-1.3704-1.3703v5.4814zm-6.5092-5.4814h1.0278v-2.0555h-2.0555v2.0555zm1.0278-8.2221h2.7407l-1.3703-1.3704-1.3704-1.3703-1.3704 1.3703-1.3703 1.3704zm-1.0278-4.111h1.0278v-2.0555h-2.0555v2.0555zm-1.0278-6.1666h2.7407l-2.7407-2.7407-2.7407 2.7407zm1.2329-4.111h0.54767l-0.34656-12.192-1.7447 1.0783-1.7447 1.0783v7.2943l1.3703 1.3703 1.3703 1.3704h0.5477zm-1.918-15.074 1.3703-1.3704-2.7406-2.7407v5.4814zm-0.12266-11.648h0.80787v-6.1666h-3.982l2.3663 6.1666zm143.6 102.44-25.548-0.30214-12.34-8.6165-0.0356-1.5416-0.0356-1.5416h7.8794l1.1991-2.5694 1.199-2.5694 1.199 2.5694 1.1991 2.5694h14.289l-1.2704-2.0555-1.2704-2.0555h6.0666l0.6852 1.8594 0.68517 1.8594 10.278 1.42-0.51388-2.5694-0.51389-2.5694h4.5509l-2.3663 6.1666h4.111l2.3663-6.1666 6.7545 0.32436-2.5694 1.0368-2.5694 1.0368v4.0314l11.305-0.88293 12.333 0.94451-6.1666 2.3806-5.3515 7.5433-25.548-0.30212zm-25.627-5.8353h2.7407l-2.7407-2.7407-2.7407 2.7407zm23.638 0h1.0278v-2.0555h-2.0555v2.0555zm10.278 0h1.0278v-2.0555h-2.0555v2.0555zm82.156 6.1666h-38.092l-2.3311-6.0747 0.71616-25.569 0.71619-25.569 3.1257-3.1241 6.245 7.922-0.58098-5.1388-0.58095-5.1388-9.2365 0.97929v-3.8583l7.1943-4.6257-7.5378 2.3687 0.83922-2.5177 0.83926-2.5177 17.619-1.4762-1.6494 2.7405-1.6494 2.7405 5.928-4.6873 10.278 0.57624v11.992l-9.4312 0.6948 2.0573-5.3612-3.4856-2.1542-0.83798 7.1778-0.83799 7.1778h3.0429l2.5408-4.111h4.111l-0.95169 1.5416-0.95174 1.5416 18.942 1.2486-7.2714-8.0348 2.3234-1.4359 2.3234-1.4359-7.0716-7.814h14.683l0.8648 2.5694 0.86476 2.5694 6.5482-5.4041 15.703 1.293 0.67858 12.847 0.67862 12.847h-29.107l0.24341-1.5416 0.2434-1.5416-0.2434-1.5215-0.24341-1.5215-4.111 3.52-4.1111 3.52v15.531l13.361 0.32395 25.694-0.6072v16.727h-12.576l1.2704 2.0555 1.2703 2.0555h10.035v8.2221zm14.453-4.111h1.0278v-2.0555h-2.0555v2.0555zm5.1388-2.0555h2.0555v-6.4092l-4.111 2.5407v3.8684zm-8.4647-2.0555h2.0555l1.2704-2.0555 1.2704-2.0555h-4.111l-1.2703 2.0555-1.2704 2.0555zm-16.202-2.0555h2.7406l-2.7406-2.7407-1.3704 1.3703-1.3703 1.3704zm7.1943 0h1.0278v-2.0555h-2.0555v2.0555zm4.5534-0.78494 0.96226-0.96223-2.1814-3.7513-2.1814-3.7513-0.0625 1.3735-0.0625 1.3735 1.2817 3.34 1.2817 3.3401zm5.7242-5.3816h1.0278v-2.0555h-2.0555v2.0555zm-18.157-15.074 1.3703-1.3704-2.7407-2.7407v5.4814zm-22.611-8.2221 1.3703-1.3704-2.7407-2.7407v5.4814zm23.687-5.45 1.7532-4.7393-1.1837-1.1837-1.1837-1.1837-1.7536 2.8374-1.7536 2.8373 2.3682 6.1713zm-27.112-0.03145h2.7407l-2.7407-2.7407-2.7407 2.7407zm3.0833-4.111h1.0278v-2.0555h-2.0555v2.0555zm42.267-2.4409 2.6979-0.89929 0.89931-2.6979 0.89928-2.6979-5.3958 1.7986-1.7986 5.3957zm17.343-1.6701h1.0278v-2.0555h-2.0555v2.0555zm-16.102-8.9072 1.3703-1.3704-2.7407-2.7407v5.4814zm-25.009-1.3704h1.0278v-2.0555h-2.0555v2.0555zm39.397-0.68517 1.3703-1.3704-1.3703-1.3704-1.3704-1.3703v5.4814zm-25.009-3.4259h1.0278v-2.0555h-2.0555v2.0555zm148.51 67.468-35.458-0.66327-6.6518-1.2247-1.863-8.6375-1.863-8.6375-15.782 0.51018-1.7914 2.8282-1.7914 2.8282-0.0315 5.5274-0.0315 5.5274-41.11 0.14552v-1.2654l14.389-64.228v-2.1052l7.1943 2.6962-5.5413-6.8147 1.3647-9.9228 1.3647-9.9228 1.5449-2.4998 1.5449-2.4997 0.23935 17.478 0.23935 17.478 1.5177 2.4556 1.5176 2.4556 5.407-15.618-1.1793-1.9082-1.1793-1.9082 2.6142-3.1499 2.6142-3.1499-4.4448-2.7699-0.72874-11.669-0.72876-11.669 11.819-2.3569h40.518l2.7603 10.998 0.0675 5.2925 0.0675 5.2925-1.716 5.9907-1.716 5.9906 6.6394-2.5478 4.214 15.233 5.207 24.666 5.2071 24.666 1.7972 6.1666 1.7971 6.1666 0.20986-37.206 0.20977-37.206 36.999-0.67111v10.334h15.743l-0.1632-4.6249-0.16322-4.6249 38.027-0.89898v8.258l-16.444 15.643 0.0315 2.8877 0.0315 2.8877 1.5671-2.4653 1.5671-2.4653 13.247 10.367v30.92l-8.2221 2.1501v3.9086l4.2792-1.3582 4.2792-1.3581-0.68201 4.8168-0.68191 4.8168h-36.999l-0.58344-22.097-0.58341-22.097h-14.25v45.52zm-39.569-9.9131h1.0278v-2.0555h-2.0555v2.0555zm47.277 0h1.0278v-2.0555h-2.0555v2.0555zm-85.369-16.444h2.12l-0.063-3.0833-3.8245-6.0475-2.7869 2.7869 2.4344 6.3439h2.1201zm-1.991-16.444h2.7407l-2.7407-2.7407-1.3704 1.3703-1.3703 1.3704zm25.694-2.0555h7.1943v-1.8532l-4.3008-21.785-1.9167-9.1403 7.2452 2.2816-7.1943-5.9276v-5.3708l-1.6776 1.7129-3.2722 19.014-3.2722 19.014v2.0537zm-26.722-4.111h3.4259l-1.4732-4.4194h-3.9055l-0.73658 2.2097-0.73656 2.2097zm117.16-2.0555h1.0278v-2.0555h-2.0555v2.0555zm-125.27-2.0555h0.90647v-4.111h-4.3537l2.5407 4.111zm135.54 0h1.0278v-2.0555h-2.0555v2.0555zm2.0555-6.1666h1.0278v-2.0555h-2.0555v2.0555zm-30.833-4.111h1.0278v-2.0555h-2.0555v2.0555zm41.11 0h1.0278v-2.0555h-2.0555v2.0555zm-52.416-4.111h2.0555v-6.1666h-4.111v6.1666zm18.5-6.4911h5.1388l-5.1388-2.0736-5.1388 2.0736zm-90.07-1.731h2.1859l-2.6002-3.133-2.6001-3.1329-1.8814 1.8814 1.3549 2.1923 1.3549 2.1923zm82.876 0h1.0278v-2.0555h-2.0555v2.0555zm-90.443-30.833h1.0278v-2.0555h-2.0555v2.0555zm-303.31 104.83h-2.1768l1.2704-2.0555 1.2703-2.0555h1.8129v4.111zm-5.0175-4.111h-1.0277v-2.0555h2.0555v2.0555zm175.23-7.8993-4.6249 0.802-14.389-2.6391 23.638-0.54118v1.5763zm-73.485-0.32274h-2.7407l1.3703-1.3704 1.3704-1.3703 1.3703 1.3703 1.3703 1.3704zm-2.8634-6.1666h-4.9189l-0.94386-2.5694-0.94385-2.5694-0.41034-13.811-0.41036-13.811 4.4687-8.3499h9.8904l1.4065-2.2757 1.4065-2.2758-9.7324 3.089 5.61-6.7596h-2.2227l-6.5028-2.4954v8.6619h-3.3524l-0.46801-16.982-0.46801-16.982 20.153-15.369h51.377l19.091 14.577v20.04l-11.305 2.1659-25.694 2.6754v-14.792h-16.825l0.70411 11.308 0.70412 11.308-15.416-4e-3 -0.0315 2.5694-0.0315 2.5694-4.3611-6.1666 1.7147 6.1666 17.098-1.3813v4.1915l-11.305 1.7126 11.305 0.61596v28.777h16.444v-18.5l-7.1943-0.48683-3.0833 0.48683v-24.666h46.893l0.20493 19.527 0.20495 19.527-29.831 0.45043 18.5 3.691 11.686-2.4961-0.73968 3.8023-0.73955 3.8023-30.762-0.21336-46.249-3.488v4.7291zm-0.21991-4.111h1.0278v-2.0555h-2.0555v2.0555zm9.2498-4.5879h7.1943l-7.1943-1.8801-7.1943 1.8801zm14.389 0.47688h2.7407l-2.7407-2.7407-2.7407 2.7407zm-17.593-26.722h3.2046v-4.111h-3.8684l-1.2704 2.0555-1.2704 2.0555zm7.3156 0h2.7407l-2.7407-2.7407-1.3704 1.3703-1.3703 1.3704zm52.294 0h0.90643l2.5408-4.111h-4.3536v4.111zm10.278 0h0.90646l2.5407-4.111h-4.3536v4.111zm-18.378-2.0555h1.0278v-2.0555h-2.0555v2.0555zm-10.278-6.1666h1.0278v-2.0555h-2.0555v2.0555zm78.11 2.0555h-1.0278v-2.0555h2.0555v2.0555zm-28.461-19.199-7.9054 0.85526 0.93771-2.6472 0.93771-2.6472 8.7966 0.97929v-4.0626h-6.1665v-8.2221l-5.1388-0.14553 10.278-5.8752 7.6498-0.14553-9.3316 7.5563 2.9522 4.7768h3.7394l-2.1717-5.6593 11.019-2.7657 2.9818-2.9818 2.9818-2.9818h4.0217l-3.9051 6.978 1.9028 5.0046 1.9027 5.0046-2.4372 7.6791h-5.8895v-2.3258l4.2557-7.9518h-5.975l-7.5305-2.6086 8.2221 7.0247-8.7052-1.8333 0.24155 3.07 0.24154 3.07zm14.415 0.01439-1.3704 1.3704v-5.4814l1.3704 1.3703 1.3703 1.3704-1.3703 1.3704zm15.074 0.68521h-2.0555v-9.3809l10.278-0.85062v4.065h-6.1666v6.1666zm16.444-6.1666h-4.111v-4.111h8.2221v4.111zm16.026 0h-8.4891l2.6768-2.6768-7.1304-5.4079-14.389 2.173 8.2221-6.9352-8.2221 2.1029-7.1943 2.9618v-6.5281l9.2498-2.0181 6.9653-1.1435 6.7004 8.2221-1.2137-2.4274-1.2138-2.4274 4.4507-2.7507h14.127l1.253-2.0274 1.253-2.0273-13.882 1.196-2.5733-1.5904-2.5733-1.5904 2.3652-3.827h17.651l0.22771 13.361 0.22769 13.361zm-6.4336-10.963 1.3703-1.3704-1.3703-1.3704-1.3704-1.3703v5.4814zm6.8517-1.3704h2.7407l-1.3703-1.3704-1.3704-1.3703-2.7407 2.7407zm137.46 12.333h-16.187v-22.334l8.0493-2.5548 29.978 0.8004 10.138 3.7689-6.0272 3.812 3.0981 0.062898 15.347-8.2257 14.443 2.5578 3.9054 3.6124h-4.9332v3.7262l8.3572-2.1855 8.087 7.3186v9.8879l-38.027-0.82638-9.6139-10.726 2.5267 8.7145-12.954 2.5908zm41.689-4.1764 1.3492 0.065366-1.075-4.111-1.0751-4.111h-7.7426v2.6301l7.1943 5.4613 1.3492 0.065366zm-51.709-1.9902h2.0555v-6.4092l-4.111 2.5407v3.8684zm69.766-2.0555h2.1768v-4.111h-1.8129l-1.2703 2.0555-1.2704 2.0555zm-45.221-2.0555h2.1768v-4.111h-1.8129l-2.5407 4.111zm34.159 0h0.90644v-1.8129l-2.3731-1.4667-2.3731-1.4667 1.4667 2.3731 1.4667 2.3731zm18.378 0h1.0278v-2.0555h-2.0555v2.0555zm-14.046-2.7407 1.3703-1.3704-1.3703-1.3704-1.3704-1.3703v5.4814zm-59.953-3.4259h1.0278v-2.0555h-2.0555v2.0555zm-4.111-2.0555h1.0278v-2.0555h-2.0555v2.0555zm-187.57-2.087-1.5416-0.03145-2.7418-1.738-2.7417-1.738 3.4237-1.3138 3.4237-1.3138h1.7193v6.1666zm19.135 0.03145h-2.962l-1.3549-2.1923-1.3549-2.1923 0.9394-0.93938 0.93935-0.93939 6.755 2.5921v3.6712zm17.49-0.34629-8.4196-0.32991-2.0468-2.4663-2.0468-2.4663 19.228 0.46997 1.7043 5.1224zm-29.038-1.7092h-2.1768l2.5407-4.111h1.8129v4.111z" fill="#292728" stroke-width="2.0555"/>
 </g>
</svg>
